<svg width="182" height="48" fill="none" xmlns="http://www.w3.org/2000/svg"><g clip-path="url(#clip0_258_606)" fill="#005677"><path d="M1.094 38.33l1.756-2.763a9.062 9.062 0 005.965 2.468c2.305 0 3.512-.961 3.512-2.36 0-3.502-10.685-.994-10.685-7.85 0-2.914 2.493-5.382 6.953-5.382a10.07 10.07 0 016.845 2.454l-1.613 2.727c-1.069-1.177-3-2.153-5.232-2.153-2.013 0-3.256.961-3.256 2.217 0 3.129 10.685.771 10.685 7.85 0 3.168-2.6 5.565-7.355 5.565-3.038.029-5.745-.965-7.575-2.773zm30.783 2.353v-2.357a8.458 8.458 0 01-2.823 2.065 8.404 8.404 0 01-3.41.74c-3.807 0-5.699-2.026-5.699-5.64V22.885h3.847v11.17c0 2.765 1.389 3.648 3.586 3.648a5.81 5.81 0 002.512-.646 5.853 5.853 0 001.987-1.675V22.883h3.843v17.8h-3.843zm8.9 0V22.884h3.843v2.583c1.354-1.697 3.477-3.024 5.745-3.024v3.835a5.155 5.155 0 00-1.172-.111c-1.645 0-3.803 1.105-4.573 2.393v12.123h-3.843zm31.749-2.353l1.752-2.763a9.062 9.062 0 005.966 2.468c2.304 0 3.515-.961 3.515-2.36 0-3.502-10.685-.994-10.685-7.85 0-2.914 2.493-5.382 6.953-5.382a10.06 10.06 0 016.841 2.454l-1.61 2.727c-1.068-1.177-3.002-2.153-5.235-2.153-2.012 0-3.252.961-3.252 2.217 0 3.129 10.685.771 10.685 7.85 0 3.168-2.596 5.565-7.355 5.565-3.038.029-5.748-.965-7.575-2.773zm17.794-6.562c0-5.382 3.768-9.329 9.11-9.329 3.476 0 5.524 1.475 6.767 3.172l-2.521 2.321a4.701 4.701 0 00-1.767-1.56 4.664 4.664 0 00-2.297-.503c-3.184 0-5.343 2.43-5.343 5.895 0 3.466 2.159 5.934 5.343 5.934a4.723 4.723 0 002.307-.549 4.766 4.766 0 001.757-1.603l2.521 2.393c-1.243 1.66-3.291 3.171-6.767 3.171-5.342.022-9.11-3.96-9.11-9.342zm19.379 8.915V22.884h3.839v2.583c1.354-1.697 3.476-3.024 5.745-3.024v3.835a5.153 5.153 0 00-1.172-.111c-1.645 0-3.804 1.105-4.573 2.393v12.123h-3.839zm12.768 0V22.884h3.843v17.8h-3.843zm12.743-2.465v9.145h-3.839V22.885h3.839v2.433a7.067 7.067 0 012.498-2.115 7.013 7.013 0 013.176-.756c4.573 0 7.836 3.462 7.836 9.328 0 5.867-3.259 9.365-7.836 9.365-2.233-.008-4.21-1.04-5.674-2.92zm9.553-6.458c0-3.466-1.977-5.895-5.012-5.895a5.732 5.732 0 00-2.544.645 5.778 5.778 0 00-1.997 1.713v7.039a5.789 5.789 0 001.987 1.754 5.741 5.741 0 002.554.678c3.035.008 5.012-2.46 5.012-5.927v-.007zm18.133 6.57l1.755-2.763a9.064 9.064 0 005.952 2.468c2.304 0 3.512-.961 3.512-2.36 0-3.502-10.685-.994-10.685-7.85 0-2.914 2.493-5.382 6.952-5.382a10.06 10.06 0 016.86 2.454l-1.614 2.727c-1.068-1.177-2.999-2.153-5.228-2.153-2.016 0-3.259.961-3.259 2.217 0 3.129 10.685.771 10.685 7.85 0 3.168-2.597 5.565-7.351 5.565-3.042.029-5.745-.965-7.579-2.774zm-36.301-19.891c0 .44-.129.87-.372 1.236a2.195 2.195 0 01-3.398.337 2.234 2.234 0 01.335-3.423 2.197 2.197 0 012.788.277c.414.417.647.983.647 1.573zm26.848 18.086V26.242h-2.924v-3.358h2.924V18.44h3.843v4.449h3.586v3.358h-3.586v9.328c0 1.217.584 2.153 1.684 2.153a3.691 3.691 0 001.628-.305v3.229a6.102 6.102 0 01-2.618.513c-2.995 0-4.537-1.622-4.537-4.607M32.343 3.73c-11.803 0-22.06 6.005-27.271 14.828l-.62-.234A31.088 31.088 0 0115.866 5.43 30.77 30.77 0 0132.345.639a30.77 30.77 0 0116.479 4.79 31.088 31.088 0 0111.414 12.895l-.62.233C54.404 9.728 44.164 3.73 32.343 3.73zM67.12 36.019a7.417 7.417 0 01-4.987 1.945c-3.33 0-5.307-2.25-5.6-4.901h13.614V32.1c0-5.6-3.366-9.655-8.673-9.655-5.232 0-8.965 4.166-8.965 9.328 0 5.64 3.918 9.361 9.26 9.361 2.672 0 5.169-.857 6.95-2.425a44.126 44.126 0 01-1.6-2.691zm-5.7-10.405c3.477 0 4.901 2.584 5.012 4.682h-9.944c.142-2.142 1.684-4.682 4.94-4.682h-.008zm118.846-2.984c.327 0 .648.097.92.28a1.682 1.682 0 01.251 2.567 1.645 1.645 0 01-2.548-.253 1.677 1.677 0 01.207-2.105c.31-.313.731-.489 1.17-.49zm0 2.96a1.276 1.276 0 001.222-.76 1.305 1.305 0 00-.243-1.425 1.279 1.279 0 00-2.208.893 1.27 1.27 0 00.345.906 1.245 1.245 0 00.884.385zm-.638-2.186h.559c.399 0 .784.097.784.517a.52.52 0 01-.392.538l.445.696h-.448l-.399-.674h-.104v.674h-.427l-.018-1.75zm.424.718h.21c.107 0 .282 0 .282-.19s-.175-.187-.282-.187h-.21v.377z"/></g><defs><clipPath id="clip0_258_606"><path fill="#fff" transform="translate(0 .5)" d="M0 0h182v47H0z"/></clipPath></defs></svg>