<svg width="232" height="61" fill="none" xmlns="http://www.w3.org/2000/svg"><path d="M1.394 49.098l2.238-3.586a11.446 11.446 0 007.605 3.204c2.938 0 4.477-1.248 4.477-3.064 0-4.545-13.62-1.29-13.62-10.188 0-3.781 3.177-6.985 8.862-6.985a12.699 12.699 0 018.726 3.185l-2.057 3.539c-1.362-1.528-3.823-2.794-6.67-2.794-2.565 0-4.15 1.248-4.15 2.878 0 4.06 13.621 1 13.621 10.188 0 4.112-3.314 7.222-9.375 7.222-3.873.038-7.323-1.252-9.657-3.6zm39.24 3.055v-3.06a10.795 10.795 0 01-3.598 2.68 10.552 10.552 0 01-4.347.962c-4.853 0-7.264-2.631-7.264-7.32V29.052h4.903v14.495c0 3.59 1.77 4.736 4.572 4.736a7.304 7.304 0 003.201-.838 7.5 7.5 0 002.533-2.175V29.052h4.899v23.1h-4.899zm11.346 0V29.052h4.899v3.352c1.725-2.202 4.43-3.925 7.323-3.925v4.978a6.46 6.46 0 00-1.494-.145c-2.097 0-4.849 1.435-5.83 3.106v15.735H51.98zm40.47-3.055l2.234-3.586a11.447 11.447 0 007.605 3.204c2.937 0 4.481-1.248 4.481-3.064 0-4.545-13.62-1.29-13.62-10.188 0-3.781 3.177-6.985 8.862-6.985a12.689 12.689 0 018.721 3.185l-2.052 3.539c-1.362-1.528-3.827-2.794-6.674-2.794-2.565 0-4.145 1.248-4.145 2.878 0 4.06 13.62 1 13.62 10.188 0 4.112-3.309 7.222-9.375 7.222-3.873.037-7.328-1.252-9.657-3.6zm22.683-8.517c0-6.984 4.803-12.106 11.613-12.106 4.432 0 7.042 1.913 8.627 4.116l-3.215 3.013a6.03 6.03 0 00-2.252-2.026 5.854 5.854 0 00-2.928-.652c-4.059 0-6.81 3.153-6.81 7.65 0 4.499 2.751 7.703 6.81 7.703a5.935 5.935 0 002.941-.713 6.113 6.113 0 002.239-2.081l3.215 3.106c-1.585 2.156-4.195 4.116-8.627 4.116-6.81.028-11.613-5.14-11.613-12.126zm24.702 11.572V29.052h4.895v3.352c1.725-2.202 4.431-3.925 7.323-3.925v4.978a6.461 6.461 0 00-1.494-.145c-2.097 0-4.849 1.435-5.829 3.106v15.735h-4.895zm16.277 0V29.052h4.899v23.1h-4.899zm16.244-3.199v11.87h-4.894V29.051h4.894v3.157a9.047 9.047 0 013.185-2.745 8.805 8.805 0 014.048-.98c5.829 0 9.988 4.493 9.988 12.107 0 7.613-4.154 12.153-9.988 12.153-2.847-.01-5.367-1.35-7.233-3.79zm12.177-8.382c0-4.498-2.52-7.65-6.388-7.65a7.202 7.202 0 00-3.243.835 7.402 7.402 0 00-2.546 2.224v9.136a7.422 7.422 0 002.533 2.276 7.216 7.216 0 003.256.881c3.868.01 6.388-3.194 6.388-7.693v-.009zm23.114 8.526l2.238-3.586a11.449 11.449 0 007.587 3.204c2.937 0 4.476-1.248 4.476-3.064 0-4.545-13.62-1.29-13.62-10.188 0-3.781 3.178-6.985 8.862-6.985a12.69 12.69 0 018.745 3.185l-2.057 3.539c-1.362-1.527-3.823-2.794-6.665-2.794-2.57 0-4.154 1.248-4.154 2.878 0 4.06 13.62 1 13.62 10.188 0 4.112-3.31 7.222-9.371 7.222-3.877.038-7.323-1.252-9.661-3.6zm-46.273-25.816c0 .572-.165 1.13-.475 1.605a2.826 2.826 0 01-1.263 1.063 2.748 2.748 0 01-1.626.164 2.791 2.791 0 01-1.441-.79 2.912 2.912 0 01-.771-1.478 2.962 2.962 0 01.16-1.668 2.872 2.872 0 011.037-1.296 2.765 2.765 0 011.564-.487c.747 0 1.463.305 1.99.846.528.541.825 1.276.825 2.041zm34.224 23.474V33.41h-3.728v-4.358h3.728v-5.77h4.898v5.774h4.572v4.359h-4.572v12.107c0 1.578.745 2.794 2.148 2.794a4.633 4.633 0 002.075-.396v4.19a7.66 7.66 0 01-3.337.666c-3.819 0-5.784-2.104-5.784-5.979M41.228 4.19c-15.046 0-28.121 7.796-34.763 19.246l-.79-.302c3.215-6.874 8.259-12.676 14.55-16.737C26.515 2.336 33.797.18 41.23.18s14.715 2.155 21.006 6.216c6.29 4.06 11.335 9.863 14.55 16.736l-.79.303C69.349 11.975 56.296 4.19 41.227 4.19zM85.559 46.1a9.362 9.362 0 01-6.356 2.523c-4.246 0-6.765-2.92-7.138-6.36h17.353v-1.248c0-7.27-4.29-12.531-11.056-12.531-6.669 0-11.427 5.406-11.427 12.107 0 7.32 4.994 12.148 11.804 12.148 3.405 0 6.588-1.112 8.858-3.147a57.478 57.478 0 01-2.038-3.493zm-7.265-13.504c4.432 0 6.248 3.352 6.388 6.076H72.006c.182-2.78 2.148-6.076 6.297-6.076h-.009zm151.495-3.875c.418 0 .826.127 1.173.365.347.238.618.576.778.972a2.215 2.215 0 01-.458 2.36 2.094 2.094 0 01-1.081.592c-.409.084-.834.04-1.22-.123a2.127 2.127 0 01-.947-.798 2.205 2.205 0 01.264-2.732 2.09 2.09 0 011.491-.636zm0 3.842c.326.014.649-.073.926-.248a1.66 1.66 0 00.632-.737 1.71 1.71 0 00-.309-1.85 1.627 1.627 0 00-.836-.479 1.593 1.593 0 00-.953.083c-.303.125-.562.34-.745.616a1.703 1.703 0 00-.281.939 1.638 1.638 0 00.44 1.176 1.58 1.58 0 001.126.5zm-.812-2.836h.712c.509 0 .999.126.999.67a.688.688 0 01-.126.443.656.656 0 01-.373.256l.567.903h-.572l-.508-.875h-.132v.875h-.545l-.022-2.272zm.54.931h.268c.136 0 .359 0 .359-.247 0-.246-.223-.242-.359-.242h-.268v.49z" fill="#fff"/></svg>